<svg id="Hexels SVG Export" xmlns="http://www.w3.org/2000/svg" version="1.1" xmlns:xlink="http://www.w3.org/1999/xlink" viewBox="0 -0 610 400" xml:space="preserve">
<g id="Root" transform="matrix(1.000, 0.000, 0.000, 1.000, 0.000, -0.000)">
<g id="Layer 1 copy" transform="matrix(1.000, 0.000, 0.000, 1.000, 0.000, 7.111)">
<path d="M 498.75,-0.18 L 401.70,55.85 L 401.73,87.83 L 374.06,71.81 L 263.14,135.85 L 263.17,167.83 L 235.48,151.82 L 13.74,279.84 L 13.67,312.07 L 27.78,320.19 L 83.13,288.20 L 152.29,328.15 L 138.60,335.80 L 110.89,319.80 L 96.81,327.93 L 96.83,360.12 L 138.58,384.20 L 194.15,352.11 L 194.09,304.17 L 235.54,328.20 L 263.45,312.08 L 263.44,264.10 L 304.86,240.20 L 332.62,256.19 L 443.53,192.15 L 443.50,160.17 L 471.14,176.20 L 512.82,152.14 L 512.79,136.17 L 526.61,144.19 L 595.97,104.14 L 596.01,71.93 L 581.91,63.81 L 540.43,87.80 L 540.59,55.93 L 526.49,47.81 L 484.92,71.81 L 471.27,64.13 L 512.85,40.12 L 512.87,7.93 L 498.75,-0.18  z
M 443.36,96.20 L 484.82,120.13 L 471.15,127.80 L 443.55,111.87 L 443.36,96.20  z
M 374.16,120.20 L 401.66,136.10 L 401.64,167.94 L 388.15,175.90 L 388.17,143.93 L 374.07,135.81 L 332.50,159.81 L 318.83,152.14 L 374.16,120.20  z
M 221.76,208.19 L 221.56,223.86 L 180.08,247.81 L 166.41,240.14 L 221.76,208.19  z
" style="fill:#57606f;fill-opacity:1.00"/>
</g>
<g id="Layer 1 copy" transform="matrix(1.000, 0.000, 0.000, 1.000, 0.000, 7.111)">
<path d="M 498.76,15.81 L 415.54,63.87 L 415.59,111.83 L 374.18,87.81 L 360.09,95.90 L 360.16,112.17 L 374.07,104.19 L 415.52,128.10 L 415.52,175.90 L 374.10,199.80 L 346.61,184.00 L 374.27,168.13 L 374.08,151.80 L 332.55,175.80 L 291.18,152.05 L 346.54,120.15 L 346.34,103.81 L 277.00,143.84 L 277.01,160.16 L 374.09,216.20 L 429.71,184.11 L 429.65,136.17 L 471.09,160.20 L 498.98,144.13 L 498.83,127.80 L 471.14,143.80 L 429.72,119.90 L 429.53,72.20 L 526.51,128.20 L 582.10,96.15 L 581.91,79.81 L 526.50,111.80 L 499.03,96.00 L 526.69,80.13 L 526.50,63.80 L 484.97,87.80 L 443.60,64.05 L 498.96,32.15 L 498.76,15.81  z
" style="fill:#f1f2f6;fill-opacity:1.00"/>
<path d="M 235.44,167.84 L 235.37,295.93 L 194.18,271.94 L 221.85,256.13 L 221.66,239.80 L 180.13,263.80 L 138.74,240.10 L 221.82,192.16 L 221.61,175.82 L 27.60,287.83 L 27.77,304.19 L 83.12,272.20 L 166.15,320.16 L 166.12,335.87 L 138.56,351.80 L 110.85,335.80 L 110.70,352.13 L 138.59,368.20 L 180.29,344.12 L 180.27,311.86 L 97.15,263.87 L 124.64,248.19 L 235.48,312.18 L 249.61,304.05 L 249.58,256.11 L 304.88,224.20 L 332.55,240.20 L 332.67,223.84 L 235.44,167.84  z
M 249.51,239.83 L 249.51,192.17 L 290.78,216.00 L 249.51,239.83  z
" style="fill:#f1f2f6;fill-opacity:1.00"/>
<path d="M 346.31,215.83 L 346.31,232.17 L 360.46,224.00 L 346.31,215.83  z
" style="fill:#f1f2f6;fill-opacity:1.00"/>
</g>
<g id="Layer 1" transform="matrix(1.000, 0.000, 0.000, 1.000, 0.000, 7.111)" display="none">
<path d="M 498.76,15.81 L 415.54,63.87 L 415.59,111.83 L 374.18,87.81 L 360.09,95.90 L 360.16,112.17 L 374.07,104.19 L 415.52,128.10 L 415.52,175.90 L 374.10,199.80 L 346.61,184.00 L 374.27,168.13 L 374.08,151.80 L 332.55,175.80 L 291.18,152.05 L 346.54,120.15 L 346.34,103.81 L 277.00,143.84 L 277.01,160.16 L 374.09,216.20 L 429.71,184.11 L 429.65,136.17 L 471.09,160.20 L 498.98,144.13 L 498.83,127.80 L 471.14,143.80 L 429.72,119.90 L 429.53,72.20 L 526.51,128.20 L 582.10,96.15 L 581.91,79.81 L 526.50,111.80 L 499.03,96.00 L 526.69,80.13 L 526.50,63.80 L 484.97,87.80 L 443.60,64.05 L 498.96,32.15 L 498.76,15.81  z
" style="fill:#ff27c9;fill-opacity:1.00"/>
<path d="M 235.44,167.84 L 235.37,295.93 L 194.18,271.94 L 221.85,256.13 L 221.66,239.80 L 180.13,263.80 L 138.74,240.10 L 221.82,192.16 L 221.61,175.82 L 27.60,287.83 L 27.77,304.19 L 83.12,272.20 L 166.15,320.16 L 166.12,335.87 L 138.56,351.80 L 110.85,335.80 L 110.70,352.13 L 138.59,368.20 L 180.29,344.12 L 180.27,311.86 L 97.15,263.87 L 124.64,248.19 L 235.48,312.18 L 249.61,304.05 L 249.58,256.11 L 304.88,224.20 L 332.55,240.20 L 332.67,223.84 L 235.44,167.84  z
M 249.51,239.83 L 249.51,192.17 L 290.78,216.00 L 249.51,239.83  z
" style="fill:#ff27c9;fill-opacity:1.00"/>
<path d="M 346.31,215.83 L 346.31,232.17 L 360.46,224.00 L 346.31,215.83  z
" style="fill:#ff27c9;fill-opacity:1.00"/>
</g>
<g id="Layer 1 copy 2" transform="matrix(1.000, 0.000, 0.000, 1.000, 0.000, 7.111)" display="none">
<path d="M 498.75,-0.18 L 401.70,55.85 L 401.73,87.83 L 374.06,71.81 L 263.14,135.85 L 263.17,167.83 L 235.48,151.82 L 13.74,279.84 L 13.67,312.07 L 27.78,320.19 L 83.13,288.20 L 152.29,328.15 L 138.60,335.80 L 110.89,319.80 L 96.81,327.93 L 96.83,360.12 L 138.58,384.20 L 194.15,352.11 L 194.09,304.17 L 235.54,328.20 L 263.45,312.08 L 263.44,264.10 L 304.86,240.20 L 332.62,256.19 L 443.53,192.15 L 443.50,160.17 L 471.14,176.20 L 512.82,152.14 L 512.79,136.17 L 526.61,144.19 L 595.97,104.14 L 596.01,71.93 L 581.91,63.81 L 540.43,87.80 L 540.59,55.93 L 526.49,47.81 L 484.92,71.81 L 471.27,64.13 L 512.85,40.12 L 512.87,7.93 L 498.75,-0.18  z
M 443.36,96.20 L 484.82,120.13 L 471.15,127.80 L 443.55,111.87 L 443.36,96.20  z
M 374.16,120.20 L 401.66,136.10 L 401.64,167.94 L 388.15,175.90 L 388.17,143.93 L 374.07,135.81 L 332.50,159.81 L 318.83,152.14 L 374.16,120.20  z
M 221.76,208.19 L 221.56,223.86 L 180.08,247.81 L 166.41,240.14 L 221.76,208.19  z
" style="fill:#000000;fill-opacity:1.00"/>
</g>
<g id="Layer 1 copy" transform="matrix(1.000, 0.000, 0.000, 1.000, 0.000, 3.111)" display="none">
<path d="M 498.76,15.81 L 415.54,63.87 L 415.59,111.83 L 374.18,87.81 L 360.09,95.90 L 360.16,112.17 L 374.07,104.19 L 415.52,128.10 L 415.52,175.90 L 374.10,199.80 L 346.61,184.00 L 374.27,168.13 L 374.08,151.80 L 332.55,175.80 L 291.18,152.05 L 346.54,120.15 L 346.34,103.81 L 277.00,143.84 L 277.01,160.16 L 374.09,216.20 L 429.71,184.11 L 429.65,136.17 L 471.09,160.20 L 498.98,144.13 L 498.83,127.80 L 471.14,143.80 L 429.72,119.90 L 429.53,72.20 L 526.51,128.20 L 582.10,96.15 L 581.91,79.81 L 526.50,111.80 L 499.03,96.00 L 526.69,80.13 L 526.50,63.80 L 484.97,87.80 L 443.60,64.05 L 498.96,32.15 L 498.76,15.81  z
" style="fill:#00ffff;fill-opacity:1.00"/>
<path d="M 235.44,167.84 L 235.37,295.93 L 194.18,271.94 L 221.85,256.13 L 221.66,239.80 L 180.13,263.80 L 138.74,240.10 L 221.82,192.16 L 221.61,175.82 L 27.60,287.83 L 27.77,304.19 L 83.12,272.20 L 166.15,320.16 L 166.12,335.87 L 138.56,351.80 L 110.85,335.80 L 110.70,352.13 L 138.59,368.20 L 180.29,344.12 L 180.27,311.86 L 97.15,263.87 L 124.64,248.19 L 235.48,312.18 L 249.61,304.05 L 249.58,256.11 L 304.88,224.20 L 332.55,240.20 L 332.67,223.84 L 235.44,167.84  z
M 249.51,239.83 L 249.51,192.17 L 290.78,216.00 L 249.51,239.83  z
" style="fill:#00ffff;fill-opacity:1.00"/>
<path d="M 346.31,215.83 L 346.31,232.17 L 360.46,224.00 L 346.31,215.83  z
" style="fill:#00ffff;fill-opacity:1.00"/>
</g>
</g></svg>
